<svg width="40" height="40" viewBox="0 0 40 40" fill="none" xmlns="http://www.w3.org/2000/svg">
<path fill-rule="evenodd" clip-rule="evenodd" d="M20.5 -1.09278e-07C21.8807 -4.89256e-08 23 1.11929 23 2.5L23 37.5C23 38.8807 21.8807 40 20.5 40C19.1193 40 18 38.8807 18 37.5L18 2.5C18 1.11929 19.1193 -1.69631e-07 20.5 -1.09278e-07Z" fill="black"/>
<path fill-rule="evenodd" clip-rule="evenodd" d="M0 18.5C0 17.1193 1.11929 16 2.5 16L37.5 16C38.8807 16 40 17.1193 40 18.5C40 19.8807 38.8807 21 37.5 21L2.5 21C1.11929 21 0 19.8807 0 18.5Z" fill="black"/>
</svg>
